<svg id="Layer_1" enable-background="new 0 0 512.008 512.008" height="512" viewBox="0 0 512.008 512.008" width="512" xmlns="http://www.w3.org/2000/svg"><g><g><path d="m488.024 282.88c0 113.246-66.754 205.051-149.1 205.051h-8.37-149.1-8.283c-82.346 0-149.1-91.804-149.1-205.051z" fill="#b9e4ef"/><path d="m464.937 282.88c0 113.246-66.754 205.051-149.1 205.051h14.716 8.369c82.346 0 149.1-91.804 149.1-205.051z" fill="#93d8e4"/><path d="m479.654 106.898v-90.799c0-5.769-5.75-9.771-11.16-7.768l-16.308 6.04c-11.138 4.125-23.385 4.125-34.523 0l-10.207-3.78c-11.138-4.125-23.385-4.125-34.523 0l-10.207 3.78c-11.138 4.125-23.385 4.125-34.523 0l-10.207-3.78c-11.138-4.125-23.385-4.125-34.523 0l-10.207 3.78c-11.138 4.125-23.385 4.125-34.523 0l-10.207-3.78c-11.138-4.125-23.385-4.125-34.523 0l-10.207 3.78c-11.138 4.125-23.385 4.125-34.523 0l-10.207-3.78c-11.138-4.125-23.385-4.125-34.523 0l-10.207 3.78c-11.138 4.125-23.385 4.125-34.523 0l-16.308-6.04c-5.41-2.004-11.16 1.998-11.16 7.768v90.798l223.65 65.433z" fill="#b9e4ef"/><path d="m468.494 8.332-12.536 4.643c.388.955.61 2.005.61 3.125v97.552l23.086-6.754v-90.799c0-5.769-5.75-9.771-11.16-7.767z" fill="#93d8e4"/><path d="m446.521 106.898v-41.417c0-4.575-3.709-8.283-8.283-8.283h-364.467c-4.575 0-8.283 3.709-8.283 8.283v41.417l-41.245 115.966-.172 60.016c0 3.699 2.453 6.951 6.011 7.965l29.954 8.546c49.231 14.045 86.485 54.426 96.525 104.627l11.368 60.533c3.279 16.395 16.095 29.211 32.49 32.49l19.188 3.838c24.141 4.828 48.827 4.826 72.967-.007l19.111-3.826c16.392-3.282 29.203-16.096 32.482-32.488l11.369-60.538c10.04-50.201 47.294-90.582 96.525-104.627l29.954-8.546c3.558-1.015 6.011-4.266 6.011-7.965v-60.016z" fill="#f9f6f6"/><path d="m446.521 106.898v-41.417c0-4.575-3.709-8.283-8.283-8.283h-23.086c4.575 0 8.284 3.709 8.284 8.283v41.417l41.503 115.967v60.016c0 3.7-2.453 6.951-6.011 7.965l-29.954 8.546c-49.231 14.045-86.485 54.426-96.525 104.627l-11.369 60.538c-3.278 16.392-16.09 29.207-32.482 32.488l-19.111 3.826c-8.27 1.656-16.604 2.73-24.958 3.252 16.044 1.002 32.162-.072 48.045-3.252l19.11-3.826c16.392-3.282 29.203-16.096 32.482-32.488l11.369-60.538c10.04-50.201 47.294-90.582 96.525-104.627l29.954-8.546c3.557-1.015 6.011-4.266 6.011-7.965v-60.016z" fill="#ecdaec"/><path d="m24.071 255.998h74.55c4.575 0 8.283-3.709 8.283-8.283v-24.85-82.833-24.85c0-4.575-3.709-8.283-8.283-8.283h-66.267c-4.575 0-8.283 3.709-8.283 8.283v24.85z" fill="#8ec6f6"/><path d="m98.621 106.898h-23c4.575 0 8.283 3.709 8.283 8.283v24.85 82.833 24.85c0 4.575-3.709 8.283-8.283 8.283h23c4.575 0 8.283-3.709 8.283-8.283v-24.85-82.833-24.85c0-4.575-3.708-8.283-8.283-8.283z" fill="#6a91cb"/><path d="m106.904 140.031c22.874 0 41.417 18.543 41.417 41.417s-18.543 41.417-41.417 41.417h-83.005c-9.15 0-16.394-7.417-16.394-16.567v-49.7c0-9.15 7.245-16.567 16.394-16.567z" fill="#f4d844"/><path d="m106.904 140.031h-23c22.874 0 41.417 18.543 41.417 41.417s-18.543 41.417-41.417 41.417h23c22.874 0 41.417-18.543 41.417-41.417s-18.543-41.417-41.417-41.417z" fill="#edbd2d"/><path d="m488.024 255.998h-74.636c-4.575 0-8.283-3.709-8.283-8.283v-24.85-82.833-24.85c0-4.575 3.709-8.283 8.283-8.283h66.267c4.575 0 8.283 3.709 8.283 8.283v24.85z" fill="#8ec6f6"/><path d="m487.937 140.031v-24.85c0-4.575-3.709-8.283-8.283-8.283h-23.086c4.575 0 8.283 3.709 8.283 8.283v24.85l.086 115.967h23.086z" fill="#6a91cb"/><path d="m405.104 222.864c-22.874 0-41.417-18.543-41.417-41.417s18.543-41.417 41.417-41.417h82.833c9.15 0 16.567 7.417 16.567 16.567v49.7c0 9.15-7.417 16.567-16.567 16.567z" fill="#f4d844"/><path d="m487.937 140.031h-23c9.15 0 16.567 7.417 16.567 16.567v49.7c0 9.15-7.417 16.567-16.567 16.567h23c9.15 0 16.567-7.417 16.567-16.567v-49.7c0-9.15-7.417-16.567-16.567-16.567z" fill="#edbd2d"/></g><path d="m495.438 133.734v-18.552c0-5.99-3.354-11.211-8.283-13.884v-85.199c0-5.162-2.53-10.005-6.768-12.954-4.237-2.951-9.661-3.64-14.498-1.847l-16.308 6.04c-9.45 3.5-19.86 3.5-29.314 0l-10.207-3.78c-12.811-4.744-26.921-4.744-39.732 0l-10.207 3.78c-9.45 3.5-19.86 3.5-29.315 0l-10.206-3.78c-12.811-4.744-26.922-4.744-39.731 0l-10.207 3.78c-9.451 3.5-19.861 3.5-29.314 0l-10.207-3.78c-12.809-4.744-26.92-4.744-39.731 0l-10.207 3.78c-9.452 3.5-19.862 3.5-29.314 0l-10.207-3.78c-12.811-4.744-26.921-4.744-39.731 0l-10.207 3.78c-9.453 3.5-19.863 3.5-29.314 0l-16.31-6.04c-4.84-1.793-10.261-1.102-14.499 1.847-4.237 2.949-6.768 7.792-6.768 12.954v85.198c-4.929 2.673-8.283 7.894-8.283 13.884v18.512c-9.601 3.124-16.566 12.208-16.566 22.904v49.7c0 10.754 7.04 19.881 16.721 22.957l-.154 53.626c0 56.344 16.019 109.402 45.104 149.403 29.61 40.722 69.207 63.148 111.496 63.148h5.817c5.766 4.363 12.543 7.48 19.96 8.964l19.188 3.838c12.586 2.517 25.259 3.775 37.934 3.775 12.688 0 25.377-1.262 37.976-3.783l19.11-3.826c7.414-1.484 14.188-4.601 19.953-8.968h5.816c42.289 0 81.886-22.426 111.495-63.148 29.086-40.001 45.105-93.059 45.105-149.403v-53.749c9.563-3.185 16.48-12.214 16.48-22.834v-49.7c-.001-10.652-6.959-19.704-16.567-22.863zm-82.834-1.203v-17.35c0-.432.352-.783.784-.783h66.267c.432 0 .783.352.783.783v17.35zm0 97.833h67.92v18.134h-67.136c-.433 0-.784-.352-.784-.783zm-7.5-15c-18.701 0-33.916-15.215-33.916-33.916 0-18.699 15.21-33.912 33.908-33.917h42.208v67.833zm33.134-150.666c.432 0 .783.352.783.783v33.917h-18.133v-34.7zm-398.048-49.241c.335-.232.614-.13.721-.092l16.308 6.04c12.809 4.744 26.923 4.745 39.732 0l10.207-3.78c9.452-3.501 19.863-3.499 29.313 0l10.207 3.78c12.809 4.744 26.922 4.745 39.732 0l10.207-3.78c9.452-3.501 19.863-3.499 29.314 0l10.207 3.78c12.811 4.744 26.922 4.744 39.732 0l10.207-3.78c9.452-3.501 19.863-3.499 29.314 0l10.207 3.78c12.811 4.744 26.922 4.744 39.732 0l10.207-3.78c9.452-3.501 19.863-3.499 29.314 0l10.207 3.78c12.811 4.744 26.922 4.744 39.732 0l16.309-6.04c.103-.038.385-.14.72.092.336.233.336.531.336.643v83.299h-18.134v-33.918c0-8.703-7.08-15.783-15.783-15.783h-364.467c-8.703 0-15.783 7.08-15.783 15.783v33.917h-18.134v-83.299c0-.111 0-.409.336-.642zm-8.468 214.907h67.683v17.351c0 .432-.352.783-.784.783h-66.951zm75.183-15h-42.2v-67.833h42.208c18.698.004 33.908 15.217 33.908 33.917 0 18.701-15.215 33.916-33.916 33.916zm-75.334-82.833v-17.35c0-.432.352-.783.783-.783h66.266c.433 0 .784.352.784.783v17.35zm59.549-33.133h-18.132v-33.917c0-.432.352-.783.783-.783h17.35v34.7zm-76.116 57.199c0-5.084 3.907-9.066 8.895-9.066h25.806v67.833h-25.806c-4.987 0-8.895-3.982-8.895-9.066zm17.054 142.612 25.92 7.394c46.74 13.335 81.696 51.226 91.212 98.799l11.384 60.619c1.01 5.049 2.781 9.8 5.182 14.14-70.754-5.118-127.928-83.032-133.698-180.952zm278.153 190.481-19.111 3.826c-23.231 4.651-46.789 4.655-70.022.008l-19.188-3.838c-13.469-2.693-23.913-13.138-26.59-26.52l-11.384-60.619c-10.639-53.195-49.655-95.486-101.822-110.368l-29.953-8.545c-.334-.096-.569-.406-.569-.731 0-.006 0-.012 0-.017l.056-19.388h66.992c8.703 0 15.784-7.08 15.784-15.783v-10.837l38.039 25.36c1.278.853 2.724 1.261 4.153 1.261 2.424 0 4.802-1.173 6.247-3.341 2.298-3.446 1.366-8.103-2.08-10.4l-34.853-23.238c17.56-7.432 29.911-24.837 29.911-45.073 0-16.223-7.945-30.619-20.141-39.523l55.529-11.106c4.062-.813 6.696-4.764 5.884-8.825-.812-4.062-4.762-6.696-8.825-5.884l-73.862 14.772v-15.701c0-5.99-3.355-11.211-8.284-13.884v-36.598h299.768v36.599c-4.929 2.673-8.284 7.894-8.284 13.884v15.701l-73.862-14.772c-4.06-.814-8.014 1.822-8.825 5.884-.813 4.062 1.822 8.013 5.884 8.825l55.529 11.106c-12.196 8.904-20.141 23.3-20.141 39.523 0 20.236 12.351 37.641 29.911 45.073l-34.854 23.237c-3.446 2.298-4.378 6.954-2.08 10.4 1.445 2.168 3.823 3.341 6.247 3.341 1.43 0 2.875-.408 4.153-1.261l38.039-25.36v10.837c0 8.703 7.081 15.783 15.784 15.783h67.136v19.383c0 .348-.234.658-.568.754l-29.954 8.545c-52.166 14.882-91.183 57.173-101.839 110.455l-11.352 60.451c-2.697 13.466-13.137 23.909-26.603 26.604zm36.117-9.528c2.412-4.361 4.192-9.139 5.209-14.222l11.352-60.451c9.533-47.661 44.489-85.552 91.228-98.886l25.92-7.394c-5.771 97.925-62.951 175.843-133.709 180.953zm150.676-273.865c0 4.999-4.067 9.066-9.066 9.066h-25.634v-67.833h25.634c4.999 0 9.066 4.067 9.066 9.066z"/></g></svg>