<?xml version="1.0" encoding="iso-8859-1"?>
<!-- Generator: Adobe Illustrator 19.0.0, SVG Export Plug-In . SVG Version: 6.00 Build 0)  -->
<svg version="1.1" id="Capa_1" xmlns="http://www.w3.org/2000/svg" xmlns:xlink="http://www.w3.org/1999/xlink" x="0px" y="0px"
	 viewBox="0 0 512 512" style="height:1em;position:relative;display:inline-block;top:.1em;" xml:space="preserve">
<path style="fill:#FFD371;" d="M341.501,173.136v-50.693c0,0,2.028-31.43-21.291-31.43c-23.319,0-40.554-14.194-40.554-34.471
	s12.165-48.938-23.319-48.938s-23.319,28.661-23.319,48.938s-17.236,34.471-40.554,34.471s-21.291,31.43-21.291,31.43v40.554"/>
<path style="fill:#DEAF50;" d="M209.76,162.997l46.577,5.069l-85.164-5.069v-40.554c0,0-2.028-31.43,21.291-31.43
	s40.554-14.194,40.554-34.471S220.851,7.603,256.337,7.603c-19.405,0-5.407,28.662-5.407,48.939s-12.262,37.7-24.67,41.906
	c-0.499,0.169-0.985,0.345-1.461,0.526c-13.028,4.973-20.729,18.488-19,32.325L209.76,162.997z"/>
<path style="fill:#428FCE;" d="M358.059,232.954v-70.46c0-8.12-6.582-14.702-14.702-14.702H168.643
	c-8.12,0-14.702,6.582-14.702,14.702v70.46"/>
<path style="fill:#3180B5;" d="M199.56,232.954v-85.162h-30.918c-8.12,0-14.702,6.582-14.702,14.702v70.46"/>
<path style="fill:#82BFB8;" d="M385.776,261.687v190.657c0,28.743-23.309,52.052-52.062,52.052H178.279
	c-28.743,0-52.052-23.309-52.052-52.052V261.687c0-28.743,23.309-52.052,52.052-52.052h155.435
	C362.468,209.635,385.776,232.944,385.776,261.687z"/>
<path style="fill:#A5E5DF;" d="M385.776,261.687v190.657c0,28.743-23.309,52.052-52.062,52.052H222.889
	c-28.743,0-52.052-23.309-52.052-52.052V261.687c0-28.743,23.309-52.052,52.052-52.052h110.825
	C362.468,209.635,385.776,232.944,385.776,261.687z"/>
<path d="M333.719,202.031H178.281c-32.897,0-59.66,26.763-59.66,59.66v139.564c0,4.199,3.405,7.604,7.604,7.604
	c4.199,0,7.604-3.405,7.604-7.604V261.691c0-24.51,19.941-44.452,44.452-44.452H333.72c24.511,0,44.452,19.941,44.452,44.452v190.65
	c-0.001,24.511-19.942,44.452-44.453,44.452H178.281c-24.511,0-44.452-19.941-44.452-44.452v-25.738
	c0-4.199-3.405-7.604-7.604-7.604c-4.199,0-7.604,3.405-7.604,7.604v25.738c0,32.897,26.763,59.66,59.66,59.66H333.72
	c32.896,0,59.659-26.763,59.659-59.66v-190.65C393.378,228.795,366.615,202.031,333.719,202.031z"/>
<path d="M153.941,200.003c4.199,0,7.604-3.405,7.604-7.604v-29.906c0-3.915,3.185-7.098,7.098-7.098h114.052
	c4.2,0,7.604-3.405,7.604-7.604c0-4.199-3.404-7.604-7.604-7.604H168.643c-12.3,0-22.306,10.007-22.306,22.306v29.906
	C146.337,196.599,149.741,200.003,153.941,200.003z"/>
<path d="M308.044,140.188c-4.2,0-7.604,3.405-7.604,7.604c0,4.199,3.404,7.604,7.604,7.604h35.314c3.913,0,7.098,3.185,7.098,7.098
	v29.906c0,4.199,3.404,7.604,7.604,7.604s7.604-3.405,7.604-7.604v-29.906c0-12.3-10.006-22.306-22.306-22.306H308.044z"/>
<path d="M171.639,130.022c4.182-0.258,7.368-3.863,7.122-8.046c-0.222-3.781,0.313-14.768,5.382-20.142
	c2.069-2.194,4.712-3.216,8.321-3.216c27.904,0,48.158-17.695,48.158-42.075c0-4.513-0.529-9.25-1.04-13.831
	c-1.042-9.335-2.12-18.987,1.787-23.355c2.462-2.753,7.499-4.148,14.969-4.148c7.47,0,12.506,1.395,14.969,4.148
	c3.907,4.369,2.83,14.021,1.787,23.354c-0.512,4.582-1.04,9.318-1.04,13.832c0,24.38,20.254,42.075,48.158,42.075
	c3.607,0,6.251,1.022,8.32,3.216c5.066,5.371,5.603,16.352,5.383,20.137c-0.262,4.183,2.914,7.792,7.1,8.061
	c0.166,0.011,0.332,0.016,0.497,0.016c3.975,0,7.321-3.091,7.581-7.115c0.133-2.05,0.992-20.349-9.442-31.477
	c-4.936-5.264-11.656-8.046-19.438-8.046c-19.401,0-32.95-11.048-32.95-26.867c0-3.666,0.46-7.784,0.947-12.144
	c1.347-12.067,2.875-25.745-5.566-35.182C277.092,3.015,268.489,0,256.337,0s-20.756,3.015-26.303,9.216
	c-8.442,9.438-6.915,23.115-5.567,35.182c0.487,4.36,0.947,8.477,0.947,12.144c0,15.819-13.549,26.867-32.951,26.867
	c-7.78,0-14.502,2.782-19.437,8.046c-10.434,11.128-9.574,29.427-9.442,31.477C163.853,127.115,167.446,130.28,171.639,130.022z"/>
<path d="M339.473,254.752h-43.596c-4.2,0-7.604,3.405-7.604,7.604c0,4.199,3.404,7.604,7.604,7.604h43.596
	c4.2,0,7.604-3.405,7.604-7.604C347.077,258.156,343.674,254.752,339.473,254.752z"/>
<path d="M295.877,366.784h43.596c4.2,0,7.604-3.405,7.604-7.604s-3.404-7.604-7.604-7.604h-43.596c-4.2,0-7.604,3.405-7.604,7.604
	S291.678,366.784,295.877,366.784z"/>
<path d="M339.473,319.301h-31.43c-4.2,0-7.604,3.405-7.604,7.604s3.404,7.604,7.604,7.604h31.43c4.2,0,7.604-3.405,7.604-7.604
	S343.674,319.301,339.473,319.301z"/>
<path d="M339.473,287.027h-31.43c-4.2,0-7.604,3.405-7.604,7.604s3.404,7.604,7.604,7.604h31.43c4.2,0,7.604-3.405,7.604-7.604
	S343.674,287.027,339.473,287.027z"/>
<path d="M339.473,416.125h-31.43c-4.2,0-7.604,3.405-7.604,7.604s3.404,7.604,7.604,7.604h31.43c4.2,0,7.604-3.405,7.604-7.604
	S343.674,416.125,339.473,416.125z"/>
<path d="M339.473,383.851h-31.43c-4.2,0-7.604,3.405-7.604,7.604c0,4.199,3.404,7.604,7.604,7.604h31.43
	c4.2,0,7.604-3.405,7.604-7.604C347.077,387.256,343.674,383.851,339.473,383.851z"/>
<path d="M295.877,463.607h43.596c4.2,0,7.604-3.405,7.604-7.604s-3.404-7.604-7.604-7.604h-43.596c-4.2,0-7.604,3.405-7.604,7.604
	S291.678,463.607,295.877,463.607z"/>
<g>
</g>
<g>
</g>
<g>
</g>
<g>
</g>
<g>
</g>
<g>
</g>
<g>
</g>
<g>
</g>
<g>
</g>
<g>
</g>
<g>
</g>
<g>
</g>
<g>
</g>
<g>
</g>
<g>
</g>
</svg>
