<svg height="511pt" viewBox="-103 1 511 511.99949" width="511pt" xmlns="http://www.w3.org/2000/svg"><path d="m74.953125 106.371094c0-25.28125 49.855469-34.199219 49.855469-53.527344 0-13.691406-1.492188-27.382812 8.734375-37.375 10.753906-10.503906 28.273437-10.503906 39.027343 0 10.226563 9.992188 8.734376 23.683594 8.734376 37.375 0 19.328125 49.855468 28.246094 49.855468 53.527344l-75.703125 24.476562" fill="#ffe785"/><path d="m153.054688 7.589844c-2.515626 0-5.03125 2.625-6.945313 7.878906-3.640625 9.996094-3.113281 23.683594-3.113281 37.371094 0 19.335937-17.742188 28.246094-17.742188 53.53125h-50.300781c0-25.285156 49.851563-34.195313 49.851563-53.53125 0-13.6875-1.488282-27.375 8.742187-37.371094 5.371094-5.253906 12.441406-7.878906 19.507813-7.878906zm0 0" fill="#f2a755"/><path d="m270.964844 147.394531v6.355469h-235.820313v-6.355469c0-22.660156 18.363281-41.023437 41.023438-41.023437h153.777343c22.660157 0 41.019532 18.363281 41.019532 41.023437zm0 0" fill="#3598ba"/><path d="m270.964844 147.394531v6.355469h-191.246094v-6.355469c0-22.660156 18.371094-41.023437 41.03125-41.023437h109.195312c22.660157 0 41.019532 18.363281 41.019532 41.023437zm0 0" fill="#61b4d8"/><path d="m298.015625 198.433594v255.53125c0 27.851562-22.578125 50.429687-50.429687 50.429687h-189.050782c-27.851562 0-50.429687-22.578125-50.429687-50.429687v-255.53125c0-27.863282 22.578125-50.441406 50.429687-50.441406h189.050782c27.851562 0 50.429687 22.578124 50.429687 50.441406zm0 0" fill="#93cad8"/><path d="m298.015625 198.433594v255.53125c0 27.851562-22.578125 50.429687-50.429687 50.429687h-129.59375c-27.851563 0-50.433594-22.578125-50.433594-50.429687v-255.53125c0-27.863282 22.582031-50.441406 50.433594-50.441406h129.59375c27.851562 0 50.429687 22.578124 50.429687 50.441406zm0 0" fill="#c0e5f2"/><path d="m154.128906 261.246094c64.734375-22.871094 109.664063 5.691406 109.664063 32.933594l-48.878907 78.457031-52.851562-64.738281zm0 0" fill="#e6e6e6"/><path d="m263.792969 294.179688v137.875c0 21.050781-17.0625 38.113281-38.113281 38.113281h-145.234376c-21.050781 0-38.117187-17.0625-38.117187-38.113281v-158.480469c0-31.390625 31.003906-53.644531 60.597656-43.179688 58.695313 20.753907 121.9375 113.988281 160.867188 63.785157zm0 0" fill="#fff"/><path d="m298.015625 384.835938c4.203125 0 7.605469-3.402344 7.605469-7.601563v-178.804687c0-20.613282-10.808594-38.734376-27.046875-49.035157v-2c0-24.121093-17.65625-44.1875-40.722657-47.976562-3.632812-13.574219-17.582031-22.265625-30.101562-30.058594-8.394531-5.222656-18.839844-11.722656-18.839844-16.515625 0-1.519531.015625-3.042969.035156-4.554688.15625-12.714843.335938-27.121093-11.058593-38.257812-13.691407-13.375-35.96875-13.375-49.660157 0-11.394531 11.136719-11.21875 25.546875-11.058593 38.257812.019531 1.511719.035156 3.035157.035156 4.554688 0 4.792969-10.445313 11.292969-18.835937 16.515625-12.523438 7.789063-26.472657 16.484375-30.105469 30.058594-23.066407 3.789062-40.722657 23.855469-40.722657 47.976562v2.003907c-16.234374 10.300781-27.039062 28.421874-27.039062 49.03125v255.53125c0 32 26.035156 58.039062 58.039062 58.039062h189.042969c32.003907 0 58.039063-26.035156 58.039063-58.039062v-46.308594c0-4.199219-3.402344-7.605469-7.605469-7.605469-4.199219 0-7.601563 3.40625-7.601563 7.605469v46.308594c0 23.617187-19.214843 42.832031-42.832031 42.832031h-189.042969c-23.617187 0-42.832031-19.214844-42.832031-42.832031v-255.53125c0-23.617188 19.214844-42.832032 42.832031-42.832032h189.042969c23.617188 0 42.832031 19.214844 42.832031 42.832032v178.804687c0 4.199219 3.402344 7.601563 7.601563 7.601563zm-191.617187-302.566407c12.789062-7.957031 26.015624-16.1875 26.015624-29.425781 0-1.582031-.023437-3.167969-.039062-4.746094-.136719-11.054687-.253906-20.605468 6.480469-27.1875 7.832031-7.652344 20.574219-7.648437 28.402343 0 6.738282 6.582032 6.617188 16.132813 6.480469 27.1875-.019531 1.578125-.039062 3.160156-.039062 4.746094 0 13.238281 13.226562 21.46875 26.015625 29.425781 8.347656 5.195313 16.894531 10.519531 21.125 16.496094h-135.5625c4.230468-5.976563 12.777344-11.300781 21.121094-16.496094zm-47.859376 58.121094c-5.34375 0-10.511718.738281-15.429687 2.097656 2.378906-16.109375 16.296875-28.515625 33.058594-28.515625h153.777343c16.761719 0 30.675782 12.402344 33.058594 28.511719-4.914062-1.355469-10.082031-2.09375-15.421875-2.09375zm0 0"/><path d="m42.328125 325.425781c-4.199219 0-7.601563 3.40625-7.601563 7.605469v99.023438c0 25.210937 20.507813 45.71875 45.71875 45.71875h145.234376c25.207031 0 45.71875-20.511719 45.71875-45.71875v-137.875c0-12.644532-7.402344-25.128907-20.304688-34.253907-23.378906-16.539062-58.875-19.136719-95.597656-7.171875-16.4375-12.296875-33.210938-23.582031-50.035156-29.53125-16.363282-5.785156-33.90625-3.335937-48.136719 6.726563-14.148438 10.003906-22.597657 26.3125-22.597657 43.625v29.039062c0 4.199219 3.402344 7.601563 7.605469 7.601563 4.199219 0 7.601563-3.402344 7.601563-7.601563v-29.039062c0-12.566407 5.894531-23.941407 16.171875-31.207031 10.140625-7.171876 22.640625-8.921876 34.289062-4.804688 19.753907 6.988281 40.738281 23.1875 61.03125 38.855469 19.441407 15.011719 37.804688 29.191406 55.453125 35.957031 15.027344 5.757812 28.1875 5.34375 39.3125-1.191406v120.871094c0 16.824218-13.6875 30.507812-30.511718 30.507812h-145.234376c-16.824218 0-30.511718-13.683594-30.511718-30.507812v-99.023438c0-4.199219-3.402344-7.605469-7.605469-7.605469zm128.390625-61.046875c-.066406-.050781-.132812-.101562-.199219-.152344 41.050781-10.285156 64.964844 3.285157 71.792969 8.113282 7.859375 5.558594 12.71875 12.484375 13.6875 19.335937-19.253906 21.777344-45.207031 3.644531-85.28125-27.296875zm0 0"/><path d="m82.90625 415.777344h43.117188c4.199218 0 7.601562-3.40625 7.601562-7.605469s-3.402344-7.601563-7.601562-7.601563h-43.117188c-4.199219 0-7.601562 3.402344-7.601562 7.601563s3.402343 7.605469 7.601562 7.605469zm0 0"/><path d="m82.90625 311.335938h43.117188c4.199218 0 7.601562-3.402344 7.601562-7.601563s-3.402344-7.605469-7.601562-7.605469h-43.117188c-4.199219 0-7.601562 3.40625-7.601562 7.605469s3.402343 7.601563 7.601562 7.601563zm0 0"/><path d="m126.023438 206.894531c4.199218 0 7.601562-3.402343 7.601562-7.601562s-3.402344-7.605469-7.601562-7.605469h-43.117188c-4.199219 0-7.601562 3.40625-7.601562 7.605469s3.402343 7.601562 7.601562 7.601562zm0 0"/></svg>