<svg height="480pt" viewBox="-16 0 480 480.00001" width="480pt" xmlns="http://www.w3.org/2000/svg"><path d="m352.101562 400.960938-5.761718-51.761719c-1.519532-14.089844-1.519532-28.308594 0-42.398438l2.960937-26.800781h-218.5625l2.960938 26.800781c1.519531 14.089844 1.519531 28.308594 0 42.398438l-5.757813 51.761719c-2.019531 18.089843 3.765625 36.183593 15.90625 49.746093s29.488282 21.308594 47.691406 21.292969h96.960938c18.203125.015625 35.550781-7.730469 47.691406-21.292969 12.144532-13.5625 17.929688-31.65625 15.910156-49.746093zm0 0" fill="#ffeb99"/><path d="m352.101562 400.960938-5.761718-51.761719c-1.519532-14.089844-1.519532-28.308594 0-42.398438l2.960937-26.800781h-218.5625l2.960938 26.800781c1.519531 14.089844 1.519531 28.308594 0 42.398438l-5.757813 51.761719c-2.019531 18.089843 3.765625 36.183593 15.90625 49.746093s29.488282 21.308594 47.691406 21.292969h96.960938c18.203125.015625 35.550781-7.730469 47.691406-21.292969 12.144532-13.5625 17.929688-31.65625 15.910156-49.746093zm0 0" fill="#ffeb99"/><path d="m200.019531 192c0 8.835938-7.164062 16-16 16h-32c-4.257812 0-8.472656.847656-12.398437 2.496094v.0625c0-.078125 0-.078125.078125 0-.078125-.078125-.078125-.078125-.078125 0v-.0625c-11.878906 4.992187-19.601563 16.621094-19.601563 29.503906v40h240v-40c.003907-12.882812-7.722656-24.511719-19.597656-29.503906v.0625c0-.078125 0-.078125-.082031 0 .082031-.078125.082031-.078125.082031 0v-.0625c-3.929687-1.648438-8.144531-2.496094-12.402344-2.496094h-32c-8.835937 0-16-7.164062-16-16v-24h-80zm0 0" fill="#2488ff"/><path d="m215.539062 472h-24c-18.203124.015625-35.550781-7.730469-47.691406-21.292969s-17.925781-31.65625-15.90625-49.746093l5.757813-51.761719c1.519531-14.089844 1.519531-28.308594 0-42.398438l-2.960938-26.800781h24l2.960938 26.800781c1.519531 14.089844 1.519531 28.308594 0 42.398438l-5.757813 51.761719c-2.019531 18.089843 3.765625 36.183593 15.90625 49.746093s29.488282 21.308594 47.691406 21.292969zm0 0" fill="#ffe477"/><path d="m176.019531 104-16 64h120c17.671875 0 32-14.328125 32-32s-14.328125-32-32-32zm0 0" fill="#ffcd00"/><path d="m397.699219 182.800781 1 1.664063c5.785156 9.636718 16.199219 15.535156 27.441406 15.535156h13.878906l-10.527343-17.710938c-8.820313-14.839843-13.472657-31.785156-13.472657-49.050781v-61.238281c0-35.347656-28.652343-64-64-64h-152c-8.835937 0-16 7.164062-16 16v32c0 8.835938 7.164063 16 16 16h120l16-32h16c17.671875 0 32 14.328125 32 32v61.40625c0 17.402344 4.730469 34.472656 13.679688 49.394531zm0 0" fill="#006df0"/><path d="m80.828125 30.832031-41.417969 154.542969 120.609375-17.375 16-64zm0 0" fill="#f1f2f2"/><path d="m69.507812 11.199219c-8.535156-2.285157-17.304687 2.78125-19.589843 11.3125l-41.417969 154.585937c-2.285156 8.535156 2.78125 17.308594 11.316406 19.59375s17.308594-2.777344 19.59375-11.316406l41.410156-154.542969c1.109376-4.105469.539063-8.480469-1.582031-12.164062-2.121093-3.683594-5.625-6.371094-9.730469-7.46875zm0 0" fill="#57a4ff"/><path d="m200.019531 72h80v32h-80zm0 0" fill="#9bc9ff"/><g fill="#231f20"><path d="m296.019531 416h-16c-4.417969 0-8-3.582031-8-8s3.582031-8 8-8h16c4.417969 0 8 3.582031 8 8s-3.582031 8-8 8zm0 0"/><path d="m296.019531 448h-16c-4.417969 0-8-3.582031-8-8s3.582031-8 8-8h16c4.417969 0 8 3.582031 8 8s-3.582031 8-8 8zm0 0"/><path d="m296.019531 304h-16c-4.417969 0-8 3.582031-8 8s3.582031 8 8 8h16c4.417969 0 8-3.582031 8-8s-3.582031-8-8-8zm0 0"/><path d="m296.019531 336h-16c-4.417969 0-8 3.582031-8 8s3.582031 8 8 8h16c4.417969 0 8-3.582031 8-8s-3.582031-8-8-8zm0 0"/><path d="m296.019531 368h-16c-4.417969 0-8 3.582031-8 8s3.582031 8 8 8h16c4.417969 0 8-3.582031 8-8s-3.582031-8-8-8zm0 0"/><path d="m446.898438 195.910156-10.535157-17.710937c-8.078125-13.605469-12.339843-29.136719-12.34375-44.960938v-61.238281c-.046875-39.746094-32.253906-71.953125-72-72h-152c-13.253906 0-24 10.746094-24 24v32c.042969 10.132812 6.445313 19.148438 16 22.527344v17.472656h-13.28125l-89.4375-68.753906c.152344-12.050782-8.65625-22.347656-20.585937-24.0625-11.929688-1.710938-23.28125 5.6875-26.527344 17.296875l-41.367188 154.535156c-3.433593 12.800781 4.15625 25.964844 16.960938 29.398437 2.019531.539063 4.105469.808594 6.199219.800782 8.769531-.035156 16.820312-4.851563 21-12.558594l115.609375-16.65625h31.429687v16c0 4.417969-3.582031 8-8 8h-32c-5.238281.003906-10.421875 1.039062-15.253906 3.054688-.070313.015624-.136719.035156-.203125.058593-14.851562 6.242188-24.519531 20.773438-24.542969 36.886719v40c0 4.417969 3.582031 8 8 8h3.550781l2.175782 19.664062c1.457031 13.511719 1.457031 27.144532 0 40.65625l-5.726563 51.75c-2.273437 20.351563 4.230469 40.703126 17.882813 55.960938 13.652344 15.261719 33.164062 23.976562 53.636718 23.96875h96.960938c20.472656.007812 39.980469-8.707031 53.632812-23.964844 13.652344-15.257812 20.160157-35.609375 17.886719-55.957031l-5.75-51.742187c-1.457031-13.511719-1.457031-27.144532 0-40.65625l2.199219-19.679688h3.550781c4.417969 0 8-3.582031 8-8v-40c-.046875-15.59375-9.152343-29.738281-23.328125-36.238281l-.070312-.066407c-.191406-.121093-.410156-.207031-.617188-.3125-.207031-.101562-.320312-.183593-.496094-.253906-.054687 0-.113281 0-.167968-.050781-4.851563-2.027344-10.058594-3.074219-15.320313-3.078125h-32c-4.417969 0-8-3.582031-8-8v-16.800781c18.644531-3.785157 32.039063-20.175781 32.039063-39.199219s-13.394532-35.414062-32.039063-39.199219v-16.800781h32c3.046875.015625 5.839844-1.699219 7.199219-4.425781l13.746094-27.574219h11.054687c13.253907 0 24 10.746094 24 24v61.40625c.003907 18.851562 5.128907 37.347656 14.824219 53.515625l1 1.664063c7.253906 12.015624 20.257812 19.378906 34.296875 19.414062h13.878906c2.878907 0 5.535157-1.542969 6.957031-4.042969 1.421876-2.5 1.394532-5.570312-.078124-8.046875zm-425.015626-6.941406c-4.25-1.144531-6.777343-5.511719-5.65625-9.769531l41.394532-154.582031c1.144531-4.269532 5.53125-6.800782 9.800781-5.65625 4.265625 1.144531 6.796875 5.53125 5.652344 9.800781l-41.390625 154.542969c-1.140625 4.269531-5.527344 6.808593-9.800782 5.664062zm63.570313-144.496094 81.535156 62.671875-13.425781 53.703125-103.277344 14.878906zm252.96875 305.605469 5.757813 51.769531c1.769531 15.835938-3.296876 31.671875-13.925782 43.539063-10.632812 11.867187-25.820312 18.640625-41.753906 18.613281h-96.960938c-15.929687.015625-31.109374-6.757812-41.734374-18.625-10.625-11.871094-15.683594-27.703125-13.914063-43.535156l5.761719-51.785156c1.582031-14.667969 1.582031-29.464844 0-44.132813l-1.976563-17.921875h200.695313l-1.949219 17.945312c-1.585937 14.667969-1.585937 29.464844 0 44.132813zm-42.402344-134.078125h32c3.046875.011719 6.066407.605469 8.886719 1.753906.1875.085938.378906.125.570312.199219 8.820313 3.78125 14.539063 12.449219 14.542969 22.046875v32h-224v-32c.003907-9.597656 5.726563-18.265625 14.542969-22.046875.195312-.074219.386719-.113281.570312-.199219 2.824219-1.148437 5.839844-1.742187 8.886719-1.753906h32c13.253907 0 24-10.746094 24-24v-16h64v16c0 13.253906 10.746094 24 24 24zm8-80c0 13.253906-10.746093 24-24 24h-109.75l12-48h97.75c13.253907 0 24 10.746094 24 24zm-32-40h-64v-16h64zm133.535157 84.34375-1-1.664062c-8.199219-13.675782-12.535157-29.324219-12.535157-45.273438v-61.40625c-.027343-22.082031-17.917969-39.972656-40-40h-16c-3.046875-.015625-5.835937 1.699219-7.199219 4.425781l-13.746093 27.574219h-115.054688c-4.417969 0-8-3.582031-8-8v-32c0-4.417969 3.582031-8 8-8h152c30.914063.035156 55.964844 25.085938 56 56v61.238281c-.007812 18.710938 5.035157 37.078125 14.59375 53.160157l3.34375 5.601562c-8.363281-.085938-16.082031-4.496094-20.402343-11.65625zm0 0"/></g></svg>