<svg id="Layer_1" enable-background="new 0 0 472 472" height="512" viewBox="0 0 472 472" width="512" xmlns="http://www.w3.org/2000/svg"><g><g><g><path d="m325.928 390.539-163.203.179s-10.627 25.259-7.85 63.853c.723 10.041 2.066 15.428 2.066 15.428h179.164c-.001 0 4.585-32.723-10.177-79.46z" fill="#61ffb0"/></g></g><g><g><g><path d="m174.744 390.718 151.188-.166c-.001-.004-.003-.009-.004-.013l-163.203.179s-10.627 25.259-7.85 63.853c.723 10.041 2.066 15.428 2.066 15.428h12.02s-1.343-5.386-2.066-15.428c-2.778-38.594 7.849-63.853 7.849-63.853z" fill="#30e693"/></g></g></g><g><g><path d="m325.928 390.539-6.008.007c14.759 46.734 10.174 79.453 10.174 79.453h6.01s4.586-32.723-10.176-79.46z" fill="#fff"/></g></g><g><g><path d="m325.775 390.508s-15.775-55.578-5.403-116.476c9.723-57.084-20.232-72.762-20.232-72.762l-166.785 44.342s40.115 80.127 29.367 144.895h163.053z" fill="#ff85ab"/></g></g><g><g><path d="m143.371 245.613 159.585-42.428c-1.712-1.335-2.816-1.914-2.816-1.914l-166.785 44.342s40.115 80.127 29.367 144.895h10.017c10.747-64.768-29.368-144.895-29.368-144.895z" fill="#f75aa1"/></g></g><g><g><g><path d="m169.116 208.589s-8.488 41.045-35.762 104.702c0 0 38.513 17.601 93.744 25.836l13.61 22.753c-38.014 7.875-90.925 9.068-118.088 6.349-56.366-5.643-40.885-56.218-28.673-113.359 12.417-53.6 10.913-105.733 62.622-113.737 22.237-3.442 28.61-7.217 39.871-13.657 14.445-8.26 23.091-19.161 23.091-19.161l42.13 27.206-.331.006.331-.006c5.634-.096 11.194-1.19 16.492-3.107 12.24-4.427 38.354-8.98 51.431 25.44 6.624 17.435 20.971 48.381 33.732 75.112l-98.071 26.141" fill="#ffdcd2"/></g></g><g><g><path d="m247.574 126.424-28.043-18.109s-8.646 10.901-23.091 19.161c-11.261 6.44-17.634 10.215-39.871 13.657-51.709 8.004-50.205 60.138-62.622 113.737-9.987 46.727-22.15 89.057 4.569 106.022-12.87-20.62-2.941-56.77 5.448-96.018 12.417-53.6 10.913-105.733 62.622-113.737 22.237-3.442 28.61-7.217 39.871-13.657 14.445-8.26 23.091-19.161 23.091-19.161l18.026 11.64z" fill="#ffc8cc"/></g></g><g><g><path d="m264.089 236.549c-32.811-6.917-62.714-50.172-78.493-77.146-4.157-7.13-8.132-14.376-11.725-21.781l-.009-.012c-9.332 2.712-20.994 3.356-30.074 6.756l-.041.313c5.362 3.768 10.038 7.481 16.648 16.432h.003c10.707 15.134 18.807 40.472-3.92 74.995l-23.123 30.2 21.428 54.066 97.745-11.431c0-.001 51.582-63.955 11.561-72.392z" fill="#ff85ab"/></g></g><g><g><path d="m149.568 260.828h-12.02l-4.193 5.477 21.428 54.066 11.487-1.343-20.895-52.723z" fill="#f75aa1"/></g></g><g><g><path d="m315.731 274.274c3.61.454 7.081 1.524 10.476 2.828 19.097 7.336 79.478-33.214 44.446-70.292-39.006-41.284-58.646 1.146-58.646 1.146s-35.267 1.489-25.982 36.099c6.349 23.666 21.046 29.13 29.706 30.219z" fill="#ffdcd2"/></g></g><g><g><path d="m370.654 206.81c-15.87-16.797-28.533-19.735-37.973-17.313 7.401 1.755 16.052 6.833 25.953 17.313 29.336 31.05-8.233 64.527-32.441 70.287l.015.006c19.097 7.335 79.478-33.215 44.446-70.293z" fill="#ffc8cc"/></g></g><path d="m210.72 281.297c12.702-4.93 30.17-12.462 38.516-19.448 0 0-35.514-4.922-14.633-28.174l16.756-16.653 14.007 4.223-5.822 15.298c23.68-2.927 24.916 11.811 45.085 18.626 19.125 6.462 21.803 21.937 21.803 21.937s-16.601 43.598-76.811 60.889c-32.455 9.32-55.813 1.151-70.452-8.361l-27.493 29.481c-3.186 3.461-8.21 4.571-12.54 2.726-9.353-3.986-24.081-12.133-23.333-23.694.164-2.528 1.723-4.792 4.074-5.743 3.07-1.242 8.124-1.517 14.787 4.21l38.265-49.162c4.036-5.333 10.249-8.607 16.939-8.831 5.549-.185 12.762.312 20.852 2.676" fill="#d483ff"/><g><g><path d="m179.569 148.701c-1.979-3.657-3.888-7.348-5.698-11.079l-.008-.012c-.223.061-.446.123-.673.184-1.141.316-2.311.606-3.508.873-3.698.859-7.978 1.672-13.112 2.466-.228.035-.447.078-.673.115-4.24.798-8.386 1.725-12.099 3.114-.003.001-.006.002-.009.003l-.041.313c3.679 2.585 7.035 5.145 10.914 9.388 3.63-1.268 7.586-2.257 11.925-2.929 5.073-.785 9.314-1.588 12.982-2.436z" fill="#f75aa1"/></g></g></g><g><g><g><path d="m177.939 288.454c4.036-5.333 10.249-8.607 16.939-8.831 3.578-.12 7.857.053 12.609.819-6.777-1.625-12.822-1.981-17.618-1.82-6.69.225-12.903 3.498-16.939 8.831l-36.951 47.474c1.17.696 2.401 1.576 3.694 2.688z" fill="#fff"/></g></g><g><g><path d="m249.621 327.992c-24.62 7.07-44.005 4.076-58.32-1.934-7.794-3.272-16.79-1.432-22.552 4.747l-17.072 18.307c-3.186 3.461-8.21 4.571-12.54 2.726-7.486-3.19-18.407-9.048-22.089-17.187-.719 1.008-1.162 2.218-1.244 3.497-.748 11.561 13.98 19.708 23.333 23.694 4.33 1.845 9.353.735 12.54-2.726l27.493-29.481c14.638 9.512 37.997 17.681 70.452 8.361 60.21-17.291 76.811-60.889 76.811-60.889s-.415-2.366-2.053-5.63c-5.983 11.48-26.169 42.561-74.759 56.515z" fill="#c35fff"/></g></g><g><g><g><path d="m372.27 254.683c-9.026 13.189-24.123 20.975-40.118 21.2-11.608.163-37.64-3.028-41.421-6.957-1.4-1.455-2.366-3.27-3.594-4.872l-4.788-6.245c-1.336-1.743-3.902-1.946-5.496-.405-1.097 1.06-1.363 2.722-.807 4.141l1.748 4.463c-9.261-9.111-36.235 2.273-22.632 18.015 5.118 5.923 13.128 8.572 18.243 9.712 3.913.872 7.743 2.039 11.474 3.505 23.455 9.218 101.369 36.827 104.414-1.661.318-4.013-1.018-7.979-2.509-11.72-2.052-5.151-6.274-14.544-14.514-29.176" fill="#ffdcd2"/></g></g><g><g><path d="m386.786 283.86c-2.054-5.152-6.276-14.545-14.516-29.177-.904 1.321-1.885 2.572-2.905 3.783 6.864 12.479 10.543 20.702 12.413 25.394 1.491 3.74 2.827 7.706 2.509 11.72-1.119 14.141-12.35 19.353-27.268 19.839 17.358.552 31.035-4.153 32.276-19.839.317-4.014-1.018-7.98-2.509-11.72z" fill="#fff"/></g></g></g><g><g><path d="m93.948 254.871c-12.213 57.14-27.693 107.715 28.672 113.359 27.163 2.72 80.074 1.526 118.088-6.349 0 0 4.132-.686 6.243-.855 5.225-.418 13.526-1.928 19.419-7.082 15.664-13.698-9.46-28.721-19.901-20.986l2.354-4.177c.671-1.191.745-2.68.032-3.846-1.275-2.086-4.084-2.371-5.753-.729l-5.611 5.519c-7.03 9.865-23.451 6.678-34.212 4.804-42.811-10.112-69.925-21.237-69.925-21.237 27.274-63.657 35.762-104.702 35.762-104.702" fill="#ffdcd2"/></g></g><g><g><path d="m119.429 194.078h-12.988c-4.794 18.22-7.535 39.388-12.494 60.793-9.987 46.727-22.15 89.057 4.569 106.022-12.87-20.62-2.941-56.77 5.448-96.018 5.897-25.454 8.658-50.574 15.465-70.797z" fill="#ffc8cc"/></g></g><g><path d="m251.359 217.023 7.005-11.38c2.874-4.401 8.965-5.362 13.787-3.409 7.992 3.766 3.6 9.39 3.6 9.39s8.375 4.363-.639 8.005c-8.744 3.534-10.837 4.482-10.837 4.482z" fill="#ffdcd2"/></g></g><g><g><path d="m289.689 48.19s23.264 35.759-12.836 79.286-63.698-22.751-63.372-31.197c0 0-18.569-.589-6.884-25.587 1.762-3.77 5.154-6.633 9.262-7.327 4.463-.753 9.836.999 12.583 11.8-.001.001 37.505-.988 61.247-26.975z" fill="#ffdcd2"/></g></g><g><g><path d="m222.495 91.278s-18.569-.589-6.884-25.587c.409-.874.913-1.693 1.486-2.454-.418.022-.833.061-1.239.129-4.108.693-7.5 3.556-9.262 7.327-11.685 24.998 6.884 25.587 6.884 25.587-.299 7.759 22.971 64.321 54.751 39.712-27.067 9.074-46.005-37.709-45.736-44.714z" fill="#ffc8cc"/></g></g><path d="m388.648 283.12c-2.088-5.237-6.218-14.384-14.048-28.373 11.903-15.786 11.143-34.883-2.489-49.311-9.648-10.211-18.961-16.242-27.816-18.071-5.765-12.822-10.101-23.023-12.836-30.221-2.764-7.274-6.103-12.868-9.77-17.139.001-.003.003-.006.005-.009 10.657-22.934-15.633-43.085-.918-66.416 12.022-19.062 3.559-54.175-23.14-54.99-11.895-25.12-46.308-20.163-67.083-11.796-18.742 7.548-28.462 22.044-35.635 41.03-6.009 15.905-11.965 20.466-16.75 24.131-5.513 4.223-9.867 7.558-10.048 23.978-.11 9.968-8.357 16.878-17.088 24.194-8.461 7.089-18.635 15.495-18.573 27.564-22.951 14.697-28.489 44.552-34.683 77.969-2.531 13.652-5.416 27.214-8.395 40.775-8.582 39.09-23.427 98.131 33.039 103.785 13.287 1.33 26.707 1.462 40.049 1.239-.165 6.333-.708 12.603-1.724 18.722-.006.033-.002.066-.006.1-1.281 3.191-10.508 27.677-7.863 64.434.727 10.097 2.063 15.541 2.12 15.768.223.891 1.024 1.517 1.944 1.517h179.164c.999 0 1.845-.735 1.984-1.723.19-1.355 4.48-33.707-10.249-80.34-.066-.21-.17-.398-.296-.567-1.253-4.718-9.527-37.59-8.593-78.563 13.525 3.729 28.104 6.652 40.615 6.652 8.678 0 16.36-1.406 21.992-4.921 10.435-6.512 11.275-18.917 7.091-29.418zm-19.452-74.937c13.641 14.437 11.836 31.066.861 46.136-8.619 12.048-22.717 19.35-37.933 19.564-1.389.02-2.923-.007-4.549-.071-6.315-17.786-26.297-20.319-39.737-30.764-4.575-17.735 5.734-32.272 24.254-33.093.75-.031 1.419-.479 1.734-1.159.071-.155 7.318-15.489 21.249-17.759 10.309-1.679 21.786 4.09 34.121 17.146zm-95.252 53.35c-6.672-2.045-15.406.272-20.309 4.856-5.664 5.297-5.66 12.377.012 18.941 7.864 9.101 20.018 9.654 30.5 13.772 4.926 1.936 11.444 4.374 18.83 6.834-9.363 8.953-22.308 18.249-39.785 25.272-3.865-1.876-8.312-2.78-12.284-2.145 2.247-5.477-4.82-10.602-9.212-6.283l-5.611 5.519c-8.06 7.908-18.527 6.629-29.028 4.853.053.145-42.695-10.334-55.555-14.908l23.027-29.584c8.261-10.919 24.052-8.825 35.628-5.443.423.123.875.104 1.288-.055 13.138-5.098 30.582-12.668 39.078-19.779 1.189-1.61.852-2.781-1.011-3.515-14.776-2.048-25.496-11.372-13.454-24.814l15.651-15.555 10.075 5.529-4.113 10.807c-.311 1.696.396 2.595 2.119 2.696 13.571-1.678 19.111 2.633 26.121 8.091 12.103 9.42 30.631 11.711 37.262 26.944-12.793-.918-28.696-3.632-30.999-6.025-.753-.783-8.235-10.948-8.235-10.948-3.477-4.537-11.508-1.019-9.995 4.94zm-28.799 72.925c.709.625 1.759.669 2.518.106 10.062-7.457 29.481 7.298 17.388 17.874-6.591 5.764-15.152 5.984-23.319 7.253l-13.266-22.013c4.189-1.01 7.91-3.024 10.551-6.647l5.491-5.4c1.404-1.38 3.511.5 2.569 2.168l-2.354 4.177c-.463.823-.287 1.858.422 2.482zm28.649-122.41c.126.58.504 1.075 1.031 1.35 3.22 1.677 2.72 3.089-.464 4.376-5.801 2.345-8.683 3.554-9.983 4.11l-10.211-5.603 5.875-9.544c2.42-3.706 7.618-4.137 11.305-2.669 2.946 1.402 4.225 3.309 2.824 6.325-.364.468-.503 1.074-.377 1.655zm-56.231-146.828c4.17 0 7.173 3.503 8.937 10.438.231.906 1.076 1.535 1.995 1.508 1.525-.041 36.717-1.247 60.759-25.61 4.163 8.38 15.724 38.873-13.943 74.644-10.077 12.149-20.206 16.39-30.108 12.612-18.104-6.912-29.916-37.358-29.72-42.455.043-1.102-.826-2.031-1.929-2.076-.051-.002-5.121-.253-7.498-4.155-4.553-7.471 1.757-24.906 11.507-24.906zm-.169 48.463c6.53 13.358 18.224 30.507 34.969 30.507 6.178 0 12.325-2.564 18.391-7.65 2.71-.534 5.41-1.278 8.082-2.245 13.02-4.711 36.685-7.82 48.876 24.268 2.832 7.453 7.093 17.403 11.935 28.227-12.696-.49-23.251 8.581-28.92 19.257-1.634.161-4.755.605-8.342 1.73-4.939-16.751-1.167-24.742-1.074-24.93.509-.973.137-2.176-.835-2.693-.976-.519-2.19-.149-2.709.827-.305.572-4.81 9.569.799 28.214-12.414 5.408-17.681 17.243-15.566 30.3-5.065-3.371-10.956-5.83-20.441-5.243l3.29-8.646c1.205-.516 4.07-1.722 10.015-4.125 4.917-1.987 7.497-6.73 2.527-10.535 1.809-4.536-1.388-8.897-5.487-10.569-5.305-2.149-12.577-1.405-16.247 4.216l-6.881 11.177-8.171 8.121c-28.715-20.299-49.493-54.047-64.89-85.026 14.907-4.542 29.896-14.075 40.679-25.182zm-44.6 26.295c15.638 31.695 36.857 65.818 65.967 86.743l-5.57 5.536c-13.721 13.455-4.409 26.668 11.279 30.655-8.685 5.883-22.717 11.934-33.847 16.275-13.2-3.719-30.022-5.19-39.274 7.039l-18.516 23.789-7.847-19.798c19.023-48.527 25.743-79.579 26.075-81.143 5.386-21.407-1.108-37.925-9.027-49.119-.026-.038-.055-.074-.084-.11-5.583-7.546-9.876-11.482-14.116-14.678 8.147-2.467 16.731-3.045 24.96-5.189zm-22.816 173.705-2.433 3.126c-5.501-2.033-9.453-3.658-11.568-4.558 2.434-5.719 4.716-11.256 6.855-16.598zm-27.158 52.555c-53.552-5.36-37.509-62.58-29.525-98.946 2.988-13.604 5.882-27.207 8.421-40.903 6.707-36.187 12.616-68.046 41.507-79.63 4.904 3.479 9.277 7.03 15.56 15.538.011.015.022.03.033.044 7.357 10.433 13.348 25.832 8.299 45.88.01.003.02.007.03.009-.338 1.596-9.167 42.502-35.632 104.273-.427.998.02 2.155 1.009 2.607.385.176 38.963 17.612 93.343 25.854l11.671 19.511c-36.218 7.053-87.221 8.516-114.716 5.763zm211.483 101.76h-175.74c-.434-2.224-1.206-6.846-1.69-13.57-2.369-32.923 5.23-56.243 7.23-61.71l160.353-.177c12.078 39.048 10.5 68.241 9.847 75.457zm-11.116-79.49h-158.125c.824-5.618 1.255-11.351 1.396-17.129 24.932-.603 52.731-3.003 74.602-7.528 9.386-1.551 19.054-1.776 26.631-8.402 7.26-6.349 7.423-15.558-.309-21.637 18.129-7.715 31.134-17.689 39.99-26.446 2.469.786 5.021 1.562 7.618 2.318-1.008 38.327 5.973 69.872 8.197 78.824zm64.111-93.086c-.494 6.24-3.066 10.729-7.864 13.723-21.082 13.155-77.14-7.211-93.82-13.767-9.711-3.815-21.654-4.237-28.934-12.662-5.408-6.259-3.152-10.745-.307-13.405 4.409-4.123 15.053-6.76 20.016-1.877 1.498 1.473 4.039-.196 3.272-2.154l-1.749-4.464c-.743-1.896 1.698-3.288 2.847-1.79 0 0 7.531 10.253 8.527 11.288 4.669 4.853 32.773 7.721 42.894 7.571 15.752-.221 30.422-7.454 39.861-19.503 7.122 12.857 10.924 21.302 12.883 26.219 1.618 4.057 2.641 7.45 2.374 10.821z" fill="#371731"/><g fill="#ff5fe8"><path d="m262.948 3.774c-10.209 0-22.174 2.869-35.782 8.596-.114.048-.234.085-.356.112-.14.033-15.777 4.023-28.144 36.755-6.413 16.973-13.145 22.13-18.06 25.894-2.249 1.722-4.11 3.15-5.512 5.391 4.734-1.921 9.152-4.564 12.981-7.95 4.186-3.702 8.977-9.476 13.725-22.041 13.009-34.432 29.596-38.005 29.596-38.005 13.958-5.874 25.245-8.326 34.344-8.67-.917-.049-1.844-.082-2.792-.082z" opacity=".3"/><path d="m313.523 104.896c-6.864-16.567-1.479-25.114 3.727-33.38.611-.969 1.214-1.932 1.796-2.902-2.688.645-5.062 2.305-6.566 4.701-4.863 7.744-9.379 15.683-3.109 30.816 5.949 14.36 6.882 23.816 5.864 30.008 1.108.817 2.201 1.722 3.274 2.726 1.802-5.276 2.086-14.899-4.986-31.969z" opacity=".3"/></g></g></svg>