<svg id="Capa_1" enable-background="new 0 0 512 512" height="512" viewBox="0 0 512 512" width="512" xmlns="http://www.w3.org/2000/svg"><g><g><path d="m305.097 189.867v104.23l83.651 133.203c4.281 7.483 4.309 16.696 0 24.18l-23.613 40.905c-4.478 7.738-12.614 12.104-20.948 12.132h-176.373c-9.581 0-17.887-5.585-21.827-13.663l-22.706-39.374c-4.791-8.249-4.167-18.143.794-25.568l82.857-131.813v-104.23h98.165z" fill="#ecf4ff"/><path d="m305.097 189.867v104.23l83.651 133.203c4.281 7.483 4.309 16.696 0 24.18l-23.613 40.905c-4.478 7.738-12.614 12.104-20.948 12.132h-29.14c8.362-.028 16.469-4.394 20.948-12.132l23.612-40.905c4.337-7.483 4.309-16.696 0-24.18l-83.651-133.202v-104.23h29.141z" fill="#d6ebff"/><g clip-rule="evenodd" fill-rule="evenodd"><path d="m205.542 353.088-51.222 81.469c-1.758 2.806-2.239 6.406-.198 9.978l14.286 24.719c1.871 3.232 4.763 5.046 8.731 5.046h163.532c3.969 0 6.86-1.814 8.73-5.046l14.259-24.719c2.069-3.571 1.587-7.172-.17-9.978l-51.223-81.469c-1.984-3.175-5.103-4.933-8.929-4.933h-88.896c-3.797 0-6.916 1.758-8.9 4.933z" fill="#ff8086"/><path d="m311.532 474.299h29.14c3.969 0 6.86-1.814 8.73-5.046l14.259-24.719c2.069-3.571 1.587-7.172-.17-9.978l-51.223-81.469c-1.984-3.175-5.103-4.933-8.929-4.933h-29.113c3.827 0 6.945 1.758 8.93 4.933l51.223 81.469c1.758 2.806 2.239 6.406.17 9.978l-14.258 24.719c-1.871 3.231-4.791 5.046-8.759 5.046z" fill="#e5646e"/><path d="m206.932 194.715h98.165c8.703 0 15.846-7.145 15.846-15.846 0-8.731-7.143-15.875-15.846-15.875h-98.165c-8.731 0-15.874 7.144-15.874 15.875 0 8.701 7.142 15.846 15.874 15.846z" fill="#ddeafb"/><path d="m275.956 194.715h29.141c8.703 0 15.846-7.145 15.846-15.846 0-8.731-7.143-15.875-15.846-15.875h-29.141c8.73 0 15.874 7.144 15.874 15.875 0 8.701-7.144 15.846-15.874 15.846z" fill="#bed8fb"/><path d="m388.295 83.878c19.021 0 34.441 15.421 34.441 34.441 0 19.05-15.421 34.471-34.441 34.471-19.021 0-34.442-15.421-34.442-34.471 0-19.02 15.42-34.441 34.442-34.441zm-132.295-76.366c19.021 0 34.441 15.421 34.441 34.441 0 19.022-15.421 34.442-34.441 34.442s-34.441-15.421-34.441-34.442c0-19.02 15.421-34.441 34.441-34.441zm-132.295 76.366c19.021 0 34.442 15.421 34.442 34.441 0 19.05-15.421 34.471-34.442 34.471s-34.44-15.421-34.44-34.471c0-19.02 15.42-34.441 34.44-34.441zm0 152.762c19.021 0 34.442 15.449 34.442 34.469 0 19.022-15.421 34.442-34.442 34.442s-34.44-15.421-34.44-34.442c0-19.02 15.42-34.469 34.44-34.469zm264.59 0c19.021 0 34.441 15.449 34.441 34.469 0 19.022-15.421 34.442-34.441 34.442-19.021 0-34.442-15.421-34.442-34.442 0-19.02 15.42-34.469 34.442-34.469z" fill="#9dc6fb"/><path d="m388.295 83.878c19.021 0 34.441 15.421 34.441 34.441 0 19.05-15.421 34.471-34.441 34.471-5.188 0-10.12-1.163-14.543-3.231 11.736-5.5 19.872-17.405 19.872-31.239 0-13.805-8.136-25.71-19.872-31.209 4.423-2.07 9.355-3.233 14.543-3.233zm-132.295-76.366c19.021 0 34.441 15.421 34.441 34.441 0 19.022-15.421 34.442-34.441 34.442-5.216 0-10.148-1.162-14.57-3.232 11.764-5.471 19.899-17.404 19.899-31.21 0-13.833-8.136-25.738-19.899-31.238 4.422-2.069 9.354-3.203 14.57-3.203zm-132.295 76.366c19.021 0 34.442 15.421 34.442 34.441 0 19.05-15.421 34.471-34.442 34.471-5.216 0-10.148-1.163-14.57-3.231 11.764-5.5 19.9-17.405 19.9-31.239 0-13.805-8.137-25.71-19.9-31.209 4.422-2.07 9.354-3.233 14.57-3.233zm0 152.762c19.021 0 34.442 15.449 34.442 34.469 0 19.022-15.421 34.442-34.442 34.442-5.216 0-10.148-1.162-14.57-3.232 11.764-5.472 19.9-17.406 19.9-31.211 0-13.832-8.137-25.738-19.9-31.237 4.422-2.069 9.354-3.231 14.57-3.231zm264.59 0c19.021 0 34.441 15.449 34.441 34.469 0 19.022-15.421 34.442-34.441 34.442-5.188 0-10.12-1.162-14.543-3.232 11.736-5.472 19.872-17.406 19.872-31.211 0-13.832-8.136-25.738-19.872-31.237 4.423-2.069 9.355-3.231 14.543-3.231z" fill="#80b4fb"/></g></g><path d="m155.709 91.22 60.805-35.092c-1.588-4.422-2.467-9.213-2.467-14.175 0-11.594 4.706-22.082 12.303-29.65 7.596-7.597 18.056-12.303 29.65-12.303s22.082 4.706 29.65 12.303c7.597 7.568 12.303 18.057 12.303 29.65 0 4.962-.879 9.753-2.467 14.175l60.805 35.092c7.993-9.41 19.615-14.824 32.004-14.824 11.594 0 22.082 4.677 29.679 12.273 7.568 7.598 12.274 18.086 12.274 29.65 0 11.595-4.706 22.083-12.274 29.68-5.925 5.896-13.606 10.064-22.167 11.622v70.187c8.561 1.56 16.242 5.727 22.167 11.623 7.568 7.596 12.274 18.084 12.274 29.678 0 11.566-4.706 22.055-12.274 29.651-7.597 7.598-18.085 12.274-29.679 12.274-12.36 0-24.011-5.386-32.004-14.826l-29.197 16.867 67.975 108.256c2.835 4.479 4.394 10.801 4.394 16.072 0 5.443-1.417 10.914-4.252 15.818l-23.613 40.905c-2.892 4.988-6.916 8.9-11.565 11.593-4.818 2.778-10.289 4.28-15.846 4.28h-176.373c-6.123 0-11.877-1.758-16.81-4.848-4.961-3.117-8.986-7.539-11.622-12.783l-22.593-39.147c-3.062-5.301-4.423-11.112-4.252-16.838.198-5.868 2.041-11.82 5.357-16.697l32.23-51.278c2.211-3.516 6.831-4.564 10.318-2.354 3.486 2.211 4.535 6.832 2.352 10.318l-32.229 51.279c-1.871 3.231-2.949 5.301-3.091 9.185-.085 3.005.624 6.094 2.268 8.9l22.705 39.347c1.928 3.316 3.061 5.271 6.463 7.426 2.552 1.588 5.613 2.495 8.901 2.495h176.373c2.892 0 5.783-.766 8.334-2.239 2.467-1.418 4.592-3.486 6.123-6.151l23.612-40.877c1.475-2.551 2.211-5.442 2.211-8.334 0-2.806-.68-5.612-2.04-8.106l-83.368-132.749c-.936-1.247-1.475-2.777-1.475-4.45v-91.871h-24.605c-4.139 0-7.483-3.374-7.483-7.512 0-4.139 3.345-7.513 7.483-7.513h32.117c2.268 0 4.365-.935 5.896-2.438 1.502-1.53 2.438-3.628 2.438-5.896 0-2.297-.936-4.395-2.438-5.896-1.531-1.531-3.628-2.467-5.896-2.467h-98.165c-2.296 0-4.393.936-5.896 2.467-1.53 1.502-2.466 3.6-2.466 5.896 0 2.268.936 4.365 2.466 5.896 1.503 1.503 3.6 2.438 5.896 2.438h32.089c4.139 0 7.483 3.374 7.483 7.513 0 4.138-3.345 7.512-7.483 7.512h-24.604v91.871c0 1.36-.398 2.75-1.162 3.97l-32.401 51.534c-2.183 3.486-6.803 4.535-10.29 2.353-3.515-2.211-4.564-6.831-2.352-10.318l16.696-26.561-29.197-16.867c-7.993 9.44-19.615 14.826-32.004 14.826-11.594 0-22.082-4.677-29.65-12.274-7.597-7.597-12.303-18.085-12.303-29.651 0-11.594 4.706-22.082 12.303-29.678 5.896-5.896 13.578-10.063 22.139-11.623v-70.187c-8.561-1.559-16.242-5.726-22.139-11.622-7.597-7.597-12.303-18.085-12.303-29.68 0-11.564 4.706-22.053 12.303-29.65 7.568-7.597 18.057-12.273 29.65-12.273 12.391-.001 24.013 5.413 32.006 14.823zm65.566 298.379c-4.167 0-7.512-3.345-7.512-7.513 0-4.139 3.345-7.483 7.512-7.483h69.421c4.139 0 7.513 3.345 7.513 7.483 0 4.168-3.374 7.513-7.513 7.513zm-35.603 58.252c-4.139 0-7.483-3.373-7.483-7.512s3.345-7.483 7.483-7.483h140.628c4.139 0 7.484 3.345 7.484 7.483 0 4.139-3.346 7.512-7.484 7.512zm17.291-29.14c-4.139 0-7.483-3.345-7.483-7.483 0-4.139 3.345-7.512 7.483-7.512h106.017c4.167 0 7.512 3.373 7.512 7.512s-3.345 7.483-7.512 7.483zm21.034-349.657-60.805 35.093c1.588 4.45 2.467 9.212 2.467 14.173 0 11.595-4.706 22.083-12.303 29.68-5.895 5.896-13.578 10.064-22.167 11.622v70.187c8.589 1.56 16.271 5.727 22.167 11.623 7.597 7.596 12.303 18.084 12.303 29.678 0 4.961-.879 9.723-2.467 14.146l29.68 17.15 6.548-10.433v-90.993c-3.431-1.162-6.491-3.117-9.015-5.612-4.224-4.224-6.831-10.063-6.831-16.497 0-6.436 2.607-12.274 6.831-16.498 4.252-4.252 10.092-6.859 16.526-6.859h98.165c6.406 0 12.246 2.607 16.498 6.859 4.224 4.224 6.832 10.062 6.832 16.498 0 6.434-2.608 12.273-6.832 16.497-2.522 2.495-5.584 4.45-9.014 5.612v90.993l6.548 10.433 29.679-17.15c-1.588-4.423-2.467-9.185-2.467-14.146 0-11.594 4.706-22.082 12.303-29.678 5.896-5.896 13.578-10.063 22.167-11.623v-70.187c-8.589-1.559-16.27-5.726-22.167-11.622-7.597-7.597-12.303-18.085-12.303-29.68 0-4.961.879-9.723 2.467-14.173l-60.805-35.093c-7.992 9.439-19.614 14.853-32.002 14.853s-24.01-5.414-32.003-14.853zm183.347 182.978c-4.876-4.876-11.594-7.881-19.049-7.881-7.428 0-14.174 3.005-19.05 7.881-4.876 4.875-7.881 11.621-7.881 19.076 0 7.428 3.005 14.174 7.881 19.049 4.876 4.876 11.622 7.881 19.05 7.881 7.455 0 14.173-3.005 19.049-7.881 4.876-4.875 7.908-11.621 7.908-19.049 0-7.455-3.032-14.201-7.908-19.076zm-264.589 0c-4.875-4.876-11.622-7.881-19.05-7.881-7.455 0-14.173 3.005-19.049 7.881-4.875 4.875-7.908 11.621-7.908 19.076 0 7.428 3.033 14.174 7.908 19.049 4.876 4.876 11.594 7.881 19.049 7.881 7.428 0 14.175-3.005 19.05-7.881 4.876-4.875 7.881-11.621 7.881-19.049 0-7.455-3.005-14.201-7.881-19.076zm0-152.761c-4.875-4.875-11.622-7.88-19.05-7.88-7.455 0-14.173 3.005-19.049 7.88-4.875 4.876-7.908 11.622-7.908 19.049 0 7.455 3.033 14.202 7.908 19.078 4.876 4.876 11.594 7.88 19.049 7.88 7.428 0 14.175-3.004 19.05-7.88 4.876-4.876 7.881-11.623 7.881-19.078 0-7.427-3.005-14.174-7.881-19.049zm132.294-76.367c-4.875-4.875-11.594-7.908-19.049-7.908-7.427 0-14.173 3.033-19.049 7.908-4.875 4.875-7.908 11.594-7.908 19.049 0 7.428 3.033 14.175 7.908 19.05 4.876 4.875 11.622 7.881 19.049 7.881 7.455 0 14.174-3.006 19.049-7.881 4.876-4.875 7.908-11.622 7.908-19.05 0-7.455-3.032-14.174-7.908-19.049zm132.295 76.367c-4.876-4.875-11.594-7.88-19.049-7.88-7.428 0-14.174 3.005-19.05 7.88-4.876 4.876-7.881 11.622-7.881 19.049 0 7.455 3.005 14.202 7.881 19.078s11.622 7.88 19.05 7.88c7.455 0 14.173-3.004 19.049-7.88s7.908-11.623 7.908-19.078c0-7.427-3.032-14.174-7.908-19.049zm-134.365 382.539c-4.139 0-7.483-3.373-7.483-7.512 0-4.14 3.345-7.513 7.483-7.513h63.384l15.647-27.1-52.782-84.048h-86.486l-52.81 84.021 15.676 27.127h63.412c4.139 0 7.483 3.373 7.483 7.513 0 4.139-3.345 7.512-7.483 7.512h-67.692c-2.579 0-5.102-1.389-6.491-3.798l-19.871-34.441c-1.559-2.353-1.672-5.528-.085-8.079l57.118-90.823c1.247-2.409 3.742-4.025 6.633-4.025h94.708c2.494 0 4.933 1.247 6.35 3.515l57.231 91.163c1.587 2.297 1.785 5.387.311 7.966l-19.814 34.301c-1.219 2.494-3.77 4.223-6.746 4.223h-67.693z"/></g></svg>