<svg id="Capa_1" enable-background="new 0 0 512 512" height="512" viewBox="0 0 512 512" width="512" xmlns="http://www.w3.org/2000/svg"><g><g><g><path d="m435.76 304.371h-10.334v-58.483-47.323-79.067c0-61.855-50.143-111.998-111.998-111.998h-82.16c-61.855 0-111.998 50.143-111.998 111.998v79.067 47.323 58.483h-10.334c-19.465 0-35.245 15.78-35.245 35.245 0 19.465 15.78 35.245 35.245 35.245h110.381 106.063 110.38c19.465 0 35.245-15.78 35.245-35.245 0-19.465-15.78-35.245-35.245-35.245z" fill="#544f57"/><path d="m385.971 504.498h-227.246v-68.818c0-37.017 30.008-67.025 67.025-67.025h93.197c37.017 0 67.025 30.008 67.025 67.025v68.818z" fill="#738b95"/><path d="m263.655 368.66c-37.02 0-67.02 30-67.02 67.02v68.82h-37.91v-68.82c0-37.02 30-67.02 67.02-67.02z" fill="#617881"/><path d="m202.527 245.891 100.047 128.975h-193.633c-9.734 0-18.541-3.945-24.926-10.321-6.376-6.385-10.321-15.192-10.321-24.926 0-19.459 15.779-35.247 35.247-35.247h10.33v-184.873c0-61.848 50.146-111.994 112.004-111.994h82.158c.18 0 .369 0 .549.009-61.602.284-111.455 50.316-111.455 111.985z" fill="#454045"/><path d="m303.786 316.154v52.502c0 17.359-14.076 31.435-31.435 31.435-17.368 0-31.444-14.076-31.444-31.435v-52.502z" fill="#ffcbbe"/><g fill="#eaac9d"><path d="m282.617 398.376c-3.216 1.107-6.669 1.712-10.264 1.712-17.368 0-31.444-14.076-31.444-31.435v-52.502h20.528v52.502c0 13.774 8.854 25.476 21.18 29.723z"/><path d="m141.014 272.437c-22.667 0-41.042-18.375-41.042-41.042 0-3.12.348-6.158 1.007-9.078 5.324-23.58 40.035-19.713 40.035 4.461h262.669c0-24.174 34.71-28.041 40.035-4.461.659 2.92 1.007 5.959 1.007 9.078 0 22.667-18.375 41.042-41.042 41.042"/><path d="m240.907 316.154h62.879v48.368h-62.879z"/></g><path d="m403.676 180.018v72.14c0 52.861-42.853 95.724-95.723 95.724h-71.223c-52.861 0-95.723-42.853-95.723-95.724v-71.317c16.299-.473 38.728-3.254 62.889-8.164 49.512-10.065 106.347-29.089 132.787-55.529-.001 0 26.156 53.448 66.993 62.87z" fill="#ffcbbe"/><path d="m299.619 347.882h-62.889c-52.861 0-95.723-42.853-95.723-95.724v-71.317c16.299-.473 38.728-3.254 62.889-8.164v79.481c-.001 52.861 42.852 95.724 95.723 95.724z" fill="#eaac9d"/><g fill="#e490b7"><ellipse cx="349.711" cy="258.961" rx="21.499" ry="13.072"/><ellipse cx="194.986" cy="258.961" rx="21.499" ry="13.072"/></g></g><g><path d="m426.839 314.675c-28.635-28.635-75.062-28.635-103.697 0l-64.651 64.651c-28.635 28.635-28.635 75.062 0 103.697 28.635 28.635 75.062 28.635 103.697 0l64.651-64.651c28.635-28.635 28.635-75.061 0-103.697z" fill="#efecef"/><path d="m436.78 327.026c-28.37-18.2-66.54-14.89-91.35 9.93l-64.65 64.65c-24.82 24.81-28.13 62.99-9.93 91.37-4.38-2.8-8.53-6.12-12.36-9.95-28.63-28.64-28.63-75.07 0-103.7l64.66-64.65c28.63-28.64 75.06-28.64 103.69 0 3.83 3.831 7.15 7.97 9.94 12.35z" fill="#c6d0da"/><ellipse cx="361.288" cy="362.981" fill="#ffcbbe" rx="49.881" ry="35.459" transform="matrix(.707 -.707 .707 .707 -150.847 361.784)"/><path d="m401.745 335.167c-14.73-6.86-36.48-1.03-52.89 15.38s-22.23 38.15-15.38 52.88c-2.76-1.27-5.27-3-7.45-5.18-13.85-13.84-9.28-40.86 10.19-60.34 19.48-19.48 46.5-24.05 60.35-10.2 2.19 2.19 3.91 4.7 5.18 7.46z" fill="#eaac9d"/></g><g><path d="m377.034 441.756-2.368 2.368c-8.437 8.437-8.437 22.115 0 30.552l9.892 9.892c8.437 8.437 22.115 8.437 30.552 0l2.368-2.368c8.437-8.437 8.437-22.115 0-30.552l-9.892-9.892c-8.437-8.436-22.115-8.436-30.552 0z" fill="#ffcbbe"/><path d="m421.108 477.389c-.96 1.73-2.17 3.35-3.63 4.81l-2.36 2.37c-8.44 8.44-22.12 8.44-30.56 0l-9.89-9.89c-8.44-8.44-8.44-22.12 0-30.55l2.37-2.37c1.47-1.47 3.09-2.68 4.82-3.63-4.54 8.21-3.33 18.76 3.63 25.73l9.89 9.89c6.97 6.969 17.52 8.179 25.73 3.64z" fill="#eaac9d"/></g><g><path d="m164.698 77.316c0 27.928-33.106 55.238-61.852 69.933-8.291-4.229-16.933-9.517-25.035-15.565-20.051-14.915-36.817-34.49-36.817-54.368 0-22.347 15.387-40.459 34.364-40.459 6.792 0 13.013 2.903 17.813 7.72.687.681 1.342 1.41 1.971 2.175 0 .005.005.005.005.01 4.769 5.817 7.699 13.736 7.699 22.462 0-17.876 12.311-32.367 27.488-32.367 11.095 0 20.953 6.179 27.236 15.785 4.482 6.835 7.128 15.388 7.128 24.674z" fill="#dd636e"/><path d="m102.846 147.25c-8.291-4.229-16.933-9.517-25.035-15.565-20.051-14.915-36.817-34.49-36.817-54.368 0-22.347 15.387-40.459 34.364-40.459 6.792 0 13.013 2.903 17.813 7.72-15.365-12.584-62.852 29.531 9.675 102.672z" fill="#da4a54"/></g></g><g><path d="m300.163 262.632c-3.818-1.608-8.216.181-9.825 3.998-3.06 7.259-10.124 11.949-17.996 11.949s-14.937-4.69-17.997-11.949c-1.609-3.816-6.006-5.608-9.824-3.997-3.817 1.609-5.606 6.008-3.997 9.824 5.41 12.831 17.899 21.122 31.818 21.122s26.409-8.291 31.818-21.122c1.609-3.817-.181-8.216-3.997-9.825z"/><path d="m259.56 244.73h25.578c4.142 0 7.5-3.358 7.5-7.5s-3.358-7.5-7.5-7.5h-25.578c-4.142 0-7.5 3.358-7.5 7.5s3.357 7.5 7.5 7.5z"/><path d="m204.97 198.315c-.432 0-.879.04-1.287.114h-14.211c-4.05 0-7.345 3.295-7.345 7.345s3.295 7.345 7.345 7.345h3.492c-.342 1.913-.516 3.896-.516 5.898 0 11.415 5.617 20.702 12.521 20.702s12.521-9.287 12.521-20.702-5.615-20.702-12.52-20.702z"/><path d="m356.17 198.429-15.114.004c-.45-.078-.897-.118-1.329-.118-6.904 0-12.521 9.287-12.521 20.702s5.617 20.702 12.521 20.702 12.521-9.287 12.521-20.702c0-2.002-.174-3.985-.516-5.898h4.438c4.05 0 7.345-3.295 7.345-7.345s-3.295-7.345-7.345-7.345z"/><path d="m417.927 298.044c-4.531-2.853-9.314-5.235-14.295-7.12 1.47-3.635 2.729-7.359 3.777-11.145 3.63-.277 7.153-.944 10.518-1.979zm19.298-66.649c0 16.173-11.506 29.708-26.762 32.853.473-4.008.714-8.046.714-12.088v-9.689c2.205-2.384 6.767-6.337 11.443-4.449 3.842 1.549 8.211-.309 9.761-4.15 1.549-3.841-.309-8.211-4.15-9.761-5.458-2.201-11.269-2.118-16.836.147 1.092-6.644 6.459-9.642 11.138-10.164 5.232-.583 12.011 1.652 13.868 9.875.547 2.417.824 4.916.824 7.426zm-265.025-154.075c0-10.488-2.89-20.443-8.354-28.786-1.238-1.892-2.589-3.643-4.02-5.278 19.283-18.035 44.921-28.256 71.442-28.256h82.16c57.621 0 104.5 46.874 104.5 104.49v80.173c-2.403.507-4.662 1.291-6.75 2.319v-21.962c0-3.493-2.411-6.523-5.814-7.308-36.821-8.493-61.705-58.361-61.949-58.859-1.064-2.175-3.114-3.703-5.503-4.101-2.387-.398-4.823.382-6.536 2.095-21.421 21.421-69.634 41.415-128.97 53.483-22.728 4.619-45.184 7.54-61.612 8.013-4.057.117-7.284 3.439-7.284 7.497v21.137c-2.085-1.026-4.341-1.808-6.74-2.314v-57.968c23.892-16.438 45.43-39.715 45.43-64.375zm-63.905 146.648c1.856-8.224 8.636-10.456 13.868-9.875 4.679.522 10.046 3.52 11.138 10.164-5.567-2.265-11.377-2.348-16.836-.147-3.841 1.55-5.699 5.92-4.15 9.761 1.549 3.842 5.918 5.698 9.761 4.15 4.668-1.885 9.223 2.053 11.432 4.438v9.7c0 4.088.247 8.119.711 12.085-15.249-3.15-26.748-16.681-26.748-32.849.001-2.509.278-5.007.824-7.427zm144.892 150.059c-1.086 1.085-2.127 2.203-3.142 3.338-1.07-2.745-1.637-5.691-1.637-8.716v-13.27h23.427zm-49.052 122.972v-61.319c0-4.142-3.358-7.5-7.5-7.5s-7.5 3.358-7.5 7.5v61.318h-22.907v-61.32c0-32.819 26.701-59.52 59.52-59.52h8.385c1.024 5.257 3.124 10.228 6.179 14.635-7.03 12.146-10.794 25.971-10.794 40.382 0 21.589 8.406 41.885 23.669 57.148 3.205 3.205 6.644 6.089 10.258 8.675h-59.31zm153.1 0c3.614-2.586 7.052-5.47 10.258-8.675l5.107-5.107 5.867 5.867v7.915zm22.734-47.572 2.368-2.368c5.5-5.499 14.447-5.499 19.945 0l9.893 9.893c2.664 2.664 4.131 6.206 4.131 9.973s-1.467 7.309-4.131 9.973l-2.368 2.368c-2.664 2.664-6.206 4.131-9.973 4.131s-7.309-1.467-9.973-4.131l-9.893-9.892c-5.497-5.5-5.497-14.448.001-19.947zm-87.684-20.062c12.168 23.544 31.071 42.136 56.268 55.404-11.065 7.925-24.276 12.218-38.152 12.23h-.12c-17.558-.016-34.065-6.861-46.486-19.282-12.43-12.43-19.276-28.959-19.276-46.542s6.846-34.112 19.276-46.542l13.917-13.917c.514 20.987 5.439 40.975 14.573 58.649zm25.552-119.988-31.002 31.002h-50.107c-48.645 0-88.22-39.575-88.22-88.22v-64.154c16.323-.995 36.195-3.771 56.884-7.976 19.23-3.911 48.075-10.902 76.291-21.996 22.397-8.806 40.165-18.534 52.983-28.997 9.089 15.329 30.773 46.563 61.511 56.666v66.457c0 12.144-2.398 23.815-7.126 34.777-4.599-.803-9.296-1.236-14.061-1.236-21.588 0-41.885 8.409-57.153 23.677zm137.597 49.751c-1.608-17.299-8.742-34.001-20.91-47.259h1.233c7.411 0 14.381 2.888 19.626 8.133 5.238 5.238 8.123 12.205 8.123 19.617.001 7.433-3.03 14.406-8.072 19.509zm10.556-49.728c-8.08-8.08-18.82-12.53-30.23-12.53h-2.83v-26.76c11.71-8.87 19.3-22.92 19.3-38.72 0-3.62-.41-7.23-1.2-10.73-2.27-10.08-9.14-17.44-18.1-20.32v-80.85c0-65.89-53.61-119.49-119.5-119.49h-82.16c-31.05 0-61.05 12.25-83.27 33.8-5.43-2.89-11.43-4.44-17.67-4.44-11.13 0-21.07 5.96-27.48 15.22-6.41-9.26-16.35-15.22-27.49-15.22-23.09 0-41.87 21.51-41.87 47.96 0 11.28 4.42 22.9 13.13 34.53 2.48 3.31 7.18 3.99 10.5 1.5 3.31-2.48 3.99-7.18 1.5-10.5-6.72-8.97-10.13-17.56-10.13-25.53 0-18.17 12.05-32.96 26.87-32.96 11.02 0 19.99 11.15 19.99 24.86 0 4.14 3.36 7.5 7.5 7.5s7.5-3.36 7.5-7.5c0-13.71 8.96-24.86 19.98-24.86 8.17 0 15.81 4.51 20.97 12.39 3.86 5.9 5.9 13.01 5.9 20.57 0 16.3-16.84 41.35-54.34 61.46-7.14-3.86-14.19-8.35-20.57-13.12-1.24-.92-2.51-1.9-3.9-2.99-3.24-2.57-7.96-2.02-10.53 1.23s-2.02 7.96 1.23 10.53c1.5 1.19 2.88 2.26 4.23 3.26 8.06 6.02 17.09 11.63 26.12 16.24 1.07.55 2.24.82 3.41.82s2.34-.27 3.41-.82c1.82-.93 3.66-1.91 5.51-2.94v49.35c-8.96 2.88-15.83 10.24-18.11 20.32-.79 3.51-1.19 7.12-1.19 10.73 0 15.8 7.59 29.85 19.3 38.72v26.76h-2.83c-23.57 0-42.75 19.17-42.75 42.74 0 11.41 4.45 22.15 12.52 30.24 8.08 8.07 18.82 12.51 30.23 12.51h64.82c-13.89 13.54-22.53 32.44-22.53 53.32v68.82c0 4.14 3.36 7.5 7.5 7.5h37.91.02 189.31c4.14 0 7.5-3.36 7.5-7.5v-6.81c2.06.46 4.2.71 6.36.71 7.78 0 15.09-3.03 20.58-8.53l2.37-2.37c5.5-5.49 8.53-12.8 8.53-20.58 0-7.77-3.03-15.08-8.53-20.57l-6.65-6.66 12.99-13c2.93-2.93 2.93-7.67 0-10.6s-7.67-2.93-10.6 0l-14.37 14.36c-10.69-4.74-23.67-2.75-32.42 6l-2.37 2.37c-8.75 8.75-10.74 21.73-6 32.42l-2.78 2.79c-24.98-11.97-43.46-29.29-54.97-51.55-10.23-19.8-14.5-43-12.43-67.23l35.26-35.27c12.44-12.43 28.97-19.28 46.55-19.28s34.11 6.85 46.55 19.28c19.56 19.57 24.8 49.54 13.03 74.57-1.76 3.75-.15 8.21 3.6 9.98 3.75 1.76 8.21.15 9.98-3.6 3.5-7.45 5.77-15.26 6.86-23.16 14.22-7.19 23.5-21.98 23.5-38.15 0-11.42-4.45-22.15-12.52-30.22zm-232.58 51.76h-7.66c-10.57 0-20.62 2.22-29.74 6.2h-87.07c-7.41 0-14.38-2.89-19.62-8.12-5.24-5.25-8.13-12.22-8.13-19.63 0-15.3 12.45-27.74 27.75-27.74h10.33c4.14 0 7.5-3.36 7.5-7.5v-26.57c3.36 1.03 6.87 1.7 10.5 1.98 11.82 42.52 50.24 74.08 96.14 75.54z"/><path d="m367.25 312.916c-12.92 2.183-25.825 9.175-36.338 19.688s-17.505 23.418-19.688 36.337c-2.342 13.859 1.028 26.151 9.491 34.614 6.708 6.708 15.822 10.216 26.216 10.216 2.718 0 5.525-.24 8.397-.726 12.92-2.183 25.825-9.175 36.338-19.688s17.505-23.418 19.688-36.338c2.342-13.858-1.029-26.151-9.491-34.613-8.462-8.463-20.757-11.835-34.613-9.49zm24.006 20.097c10.717 10.717 6.047 33.494-10.197 49.738-16.245 16.245-39.022 20.914-49.739 10.198-10.716-10.717-6.046-33.494 10.198-49.738 10.32-10.32 23.275-15.968 34.102-15.968 6.214-.001 11.728 1.861 15.636 5.77z"/><circle cx="375.46" cy="357.86" r="7.5"/><circle cx="359.62" cy="341.75" r="7.5"/></g></g></svg>